# Blender 4.0.2
# www.blender.org
mtllib snow.mtl
o rock.009
v -0.725331 -0.849303 0.319857
v 0.566249 -0.544028 1.032920
v 0.677260 -0.824161 -0.306643
v -0.485920 -0.509113 -0.864008
v -0.542129 0.534350 0.984488
v 0.551974 0.720300 0.225240
v 0.476113 0.504256 -0.843144
v -0.564262 0.729311 -0.241159
v -0.005049 -1.419862 -0.009059
v -0.112452 -1.057293 0.925710
v 0.945073 -0.940729 0.408726
v -0.749539 -0.835802 -0.387949
v 0.019531 -0.870643 -0.703318
v -0.713385 0.000253 -0.001317
v -0.532189 0.056206 -0.526698
v -0.782815 -0.142383 0.714995
v -0.854057 0.892517 0.390810
v 0.633654 0.094806 0.602116
v 0.003327 0.003333 1.212487
v 0.064602 0.957430 0.802406
v 0.770031 0.011590 0.006507
v 0.797846 0.853249 -0.378538
v 0.597339 -0.080201 -0.588573
v 0.007653 -0.002369 -0.913116
v -0.081310 0.960082 -0.823675
v 0.002486 1.432712 -0.001294
v 0.338764 -1.432362 0.474339
v -0.294385 -1.152489 -0.388810
v -0.813080 -0.250349 -0.328362
v -0.914173 0.271117 0.326548
v 0.326265 0.432997 0.926984
v -0.368532 -0.485824 1.039026
v 0.885099 -0.260685 0.331287
v 0.856755 0.272614 -0.316465
v 0.235922 -0.345809 -0.780676
v -0.268470 0.385636 -0.837424
v -0.326559 1.384045 0.453081
v 0.325647 1.344265 -0.439982
v -0.427375 -1.245597 0.218898
v 0.441337 -1.284228 -0.266112
v -0.481614 -1.062584 0.670721
v 0.271643 -0.843179 1.022144
v 0.795798 -0.778037 0.803566
v 0.873803 -0.934213 -0.016963
v -0.768635 -0.872607 -0.034858
v -0.638403 -0.700728 -0.657835
v 0.354799 -0.926904 -0.560678
v -0.258206 -0.730971 -0.806532
v -0.817317 -0.370053 0.117063
v -0.679435 0.330791 -0.106724
v -0.589046 -0.210526 -0.740428
v -0.507260 0.340943 -0.372782
v -0.773126 -0.480404 0.516109
v -0.684620 0.205623 0.856152
v -0.773530 0.768815 0.782605
v -0.753505 0.853106 0.021755
v 0.694657 -0.192183 0.854364
v 0.543857 0.368032 0.392506
v 0.292759 -0.280872 1.117162
v -0.294153 0.284358 1.129311
v -0.265575 0.853632 1.047567
v 0.341006 0.901389 0.529579
v 0.828816 -0.376330 -0.132995
v 0.651534 0.329391 0.084432
v 0.669452 0.807293 -0.060453
v 0.720355 0.740061 -0.732764
v 0.620568 -0.411504 -0.441331
v 0.572539 0.211251 -0.730410
v -0.258275 -0.265550 -0.976540
v 0.243157 0.249687 -0.875616
v 0.261086 0.784432 -0.935377
v -0.326641 0.885888 -0.518815
v 0.365332 1.148778 0.190422
v -0.373986 1.167950 -0.200476
v 0.181756 -1.548163 0.227919
v 0.682592 -1.267698 0.452294
v 0.104982 -1.275657 0.734876
v -0.533188 -1.058097 -0.401166
v -0.148367 -1.035383 -0.543328
v -0.169934 -1.269283 -0.210623
v -0.745167 -0.150183 -0.181225
v -0.714772 -0.098353 -0.438875
v -0.876059 -0.532443 -0.361744
v -0.883938 0.089730 0.505913
v -0.943093 0.545768 0.354235
v -0.805080 0.158556 0.170578
v 0.487680 0.292970 0.777752
v 0.215446 0.673605 0.879856
v 0.208599 0.268321 1.103490
v -0.288446 -0.776204 1.042062
v -0.224711 -0.284853 1.210893
v -0.592076 -0.347969 0.913886
v 0.796830 -0.092374 0.469950
v 0.949726 -0.549024 0.364306
v 0.822439 -0.144156 0.171950
v 0.784275 0.162224 -0.164811
v 0.840005 0.094859 -0.493521
v 0.828881 0.522976 -0.347837
v 0.130309 -0.199240 -0.830398
v 0.372930 -0.229024 -0.664543
v 0.162001 -0.605447 -0.791484
v -0.425612 0.252387 -0.701042
v -0.183162 0.634429 -0.824653
v -0.159291 0.227641 -0.968803
v -0.175342 1.423693 0.219502
v -0.663083 1.240353 0.434372
v -0.100914 1.253389 0.713757
v 0.620371 1.174006 -0.416626
v 0.107885 1.230864 -0.699351
v 0.178725 1.396425 -0.217586
v -0.237060 -1.342917 0.502345
v 0.666177 -1.356225 -0.009349
v 0.501227 -1.072037 0.815518
v -0.516850 -1.144349 -0.073856
v -0.417879 -0.899452 -0.624754
v 0.146829 -1.170305 -0.415801
v -0.860635 -0.500909 -0.085283
v -0.600430 0.106518 -0.257045
v -0.773384 -0.402936 -0.611245
v -0.825788 -0.162814 0.302610
v -0.867326 0.414444 0.667951
v -0.822161 0.491840 0.070620
v 0.450737 0.017179 0.975070
v 0.435009 0.586085 0.627278
v -0.043521 0.562917 1.109786
v -0.582208 -0.712164 0.781397
v 0.046253 -0.584349 1.174781
v -0.489003 -0.017552 1.052918
v 0.677997 0.131117 0.267110
v 0.873775 -0.406495 0.669674
v 0.871606 -0.517777 0.073028
v 0.735430 0.472896 -0.101304
v 0.837417 -0.161038 -0.313335
v 0.816168 0.406912 -0.636854
v -0.057188 -0.494219 -0.936070
v 0.325829 0.022031 -0.750334
v 0.393333 -0.561578 -0.611962
v -0.388723 -0.002774 -0.863816
v -0.400572 0.550202 -0.595256
v 0.064041 0.492050 -0.962940
v 0.179615 1.221819 0.438453
v -0.554873 1.198040 0.041047
v -0.507735 1.092369 0.835873
v 0.530236 1.155843 -0.054127
v 0.485599 1.040365 -0.781808
v -0.189196 1.236580 -0.448421
vn -0.7317 -0.6578 0.1786
vn -0.4431 -0.8940 -0.0665
vn -0.1148 -0.8821 0.4568
vn -0.3315 -0.7340 0.5928
vn 0.6708 -0.3723 -0.6414
vn 0.8454 -0.5330 -0.0343
vn 0.4305 -0.8898 0.1513
vn 0.0848 -0.8967 -0.4345
vn 0.3952 -0.3909 0.8312
vn 0.1300 -0.5829 0.8021
vn 0.3113 -0.7236 0.6160
vn 0.6511 -0.5360 0.5374
vn -0.7616 -0.6432 0.0788
vn -0.7267 -0.6754 -0.1251
vn -0.3856 -0.8883 -0.2494
vn -0.4414 -0.8708 -0.2165
vn -0.3445 -0.5335 -0.7724
vn -0.0884 -0.6695 -0.7375
vn -0.2031 -0.7190 -0.6647
vn -0.5412 -0.5898 -0.5994
vn 0.4709 -0.4904 -0.7333
vn -0.0696 -0.8385 -0.5404
vn -0.0682 -0.8141 -0.5767
vn 0.1170 -0.6612 -0.7410
vn -0.9694 -0.1522 0.1929
vn -0.9582 0.2852 -0.0216
vn -0.9549 0.2793 0.1010
vn -0.9513 -0.3082 -0.0081
vn -0.8390 0.0625 -0.5406
vn -0.8454 0.4440 -0.2968
vn -0.8592 0.5117 0.0016
vn -0.9253 0.1783 -0.3346
vn -0.6710 -0.0570 -0.7392
vn -0.8200 -0.2975 -0.4891
vn -0.9141 0.2891 -0.2842
vn -0.7352 0.4752 -0.4833
vn -0.9873 -0.1427 0.0699
vn -0.9759 -0.1877 0.1110
vn -0.9489 -0.1789 -0.2599
vn -0.9457 0.0543 -0.3206
vn -0.6944 -0.0157 0.7194
vn -0.9429 0.1863 0.2762
vn -0.9835 -0.0726 0.1654
vn -0.8534 -0.0861 0.5141
vn -0.7849 0.0408 -0.6182
vn -0.8726 -0.1240 -0.4724
vn -0.8975 -0.1184 -0.4248
vn -0.9191 0.1988 -0.3403
vn 0.5073 0.1910 0.8403
vn 0.7832 0.4082 0.4691
vn 0.7164 0.2879 0.6355
vn 0.4645 0.0931 0.8807
vn 0.9027 0.2540 0.3474
vn 0.7078 0.4487 0.5455
vn 0.7657 0.4161 0.4904
vn 0.9114 0.3581 0.2027
vn -0.2490 0.1499 0.9568
vn 0.0563 0.1848 0.9812
vn 0.5157 0.4072 0.7538
vn 0.4426 0.4725 0.7621
vn -0.8667 -0.3361 0.3686
vn -0.5628 -0.4867 0.6681
vn -0.6382 -0.2328 0.7338
vn -0.8493 -0.2445 0.4679
vn 0.2716 -0.1703 0.9472
vn 0.1784 -0.0500 0.9827
vn -0.3558 -0.2621 0.8970
vn -0.0234 -0.4597 0.8878
vn -0.5787 0.0452 0.8143
vn -0.7434 -0.0548 0.6666
vn -0.6001 -0.1775 0.7800
vn -0.3106 0.0976 0.9455
vn 0.9292 0.2199 0.2972
vn 0.8521 0.4962 0.1666
vn 0.8844 0.4667 -0.0051
vn 0.9189 0.3610 0.1589
vn 0.7477 0.0718 0.6602
vn 0.9479 -0.0285 0.3173
vn 0.9472 0.2817 0.1531
vn 0.8310 0.4433 0.3360
vn 0.8964 -0.0198 -0.4428
vn 0.9784 0.1737 -0.1118
vn 0.9534 0.1874 -0.2364
vn 0.9790 0.0085 -0.2035
vn 0.8973 0.0969 0.4307
vn 0.9115 0.1572 0.3800
vn 0.9036 0.0997 0.4167
vn 0.9155 0.1278 0.3815
vn 0.8219 -0.2039 -0.5319
vn 0.6518 -0.3517 -0.6719
vn 0.9836 -0.0426 0.1755
vn 0.9832 0.0907 0.1582
vn 0.4842 -0.1392 -0.8638
vn 0.9705 0.1494 -0.1893
vn 0.9931 0.0601 -0.1006
vn 0.5454 -0.3217 -0.7739
vn -0.1444 -0.3395 -0.9294
vn 0.3524 -0.0028 -0.9358
vn 0.4859 -0.0457 -0.8728
vn 0.1773 -0.4912 -0.8528
vn 0.3590 -0.2831 -0.8894
vn 0.3979 -0.3096 -0.8636
vn 0.5573 -0.0680 -0.8275
vn 0.4583 -0.2024 -0.8655
vn 0.6490 -0.1625 -0.7433
vn 0.4637 -0.3162 -0.8277
vn 0.6512 -0.1118 -0.7506
vn 0.5691 -0.2025 -0.7969
vn -0.5655 0.1089 -0.8175
vn -0.8449 0.3339 -0.4180
vn -0.6735 0.2557 -0.6935
vn -0.1234 0.0403 -0.9915
vn -0.8635 0.1578 -0.4790
vn -0.7659 0.2718 -0.5827
vn -0.7491 0.2813 -0.5998
vn -0.9343 0.2089 -0.2887
vn 0.2804 -0.1159 -0.9528
vn 0.2303 -0.1235 -0.9653
vn -0.4165 0.2819 -0.8644
vn -0.2965 0.1866 -0.9366
vn 0.8126 0.4416 0.3804
vn 0.4508 0.8620 0.2318
vn 0.3009 0.9147 0.2698
vn 0.6434 0.5082 0.5725
vn -0.6834 0.3866 -0.6193
vn -0.8261 0.4899 -0.2787
vn -0.4129 0.8938 -0.1747
vn -0.3868 0.8575 -0.3392
vn -0.4803 0.2532 0.8397
vn 0.1840 0.5843 0.7904
vn -0.2678 0.8232 0.5005
vn -0.7846 0.4766 0.3965
vn 0.7985 0.3527 0.4878
vn 0.8526 0.4183 0.3132
vn 0.4985 0.8534 0.1524
vn 0.4670 0.8343 0.2928
vn 0.4095 0.0965 -0.9072
vn -0.0009 0.4672 -0.8842
vn 0.3698 0.7735 -0.5147
vn 0.7902 0.4692 -0.3942
vn -0.7914 0.3943 -0.4671
vn -0.3778 0.8965 -0.2313
vn -0.1911 0.9366 -0.2938
vn -0.6441 0.5156 -0.5651
vt 0.669120 0.369641
vt 0.615376 0.451589
vt 0.567116 0.436807
vt 0.606929 0.366407
vt 0.996744 0.631901
vt 0.924966 0.583097
vt 0.926729 0.520229
vt 1.000000 0.567772
vt 0.501201 0.511572
vt 0.462886 0.466381
vt 0.495319 0.404890
vt 0.528552 0.342274
vt 0.255778 0.677511
vt 0.208436 0.654844
vt 0.227697 0.563193
vt 0.270956 0.575388
vt 0.131638 0.636799
vt 0.139870 0.557578
vt 0.144258 0.504496
vt 0.194632 0.485536
vt 0.825871 0.573832
vt 0.819848 0.511572
vt 0.405930 0.260857
vt 0.456753 0.304125
vt 0.421912 0.370585
vt 0.372057 0.330894
vt 0.403181 0.449683
vt 0.052520 0.637971
vt 0.064920 0.564452
vt 0.692610 0.415430
vt 0.645785 0.468938
vt 1.000000 0.745932
vt 0.963244 0.784688
vt 0.944742 0.732116
vt 0.977257 0.685522
vt 0.916426 0.690508
vt 0.921541 0.642552
vt 0.859101 0.843941
vt 0.845146 0.782799
vt 0.896751 0.761616
vt 0.913371 0.816452
vt 0.822147 0.721463
vt 0.872795 0.703974
vt 0.755504 0.608500
vt 0.849012 0.638668
vt 0.788332 0.659847
vt 0.092364 0.464507
vt 0.137475 0.380789
vt 0.169937 0.414577
vt 0.155174 0.482139
vt 0.171246 0.308091
vt 0.199542 0.344543
vt 0.221799 0.371504
vt 0.219199 0.430226
vt 0.221196 0.485536
vt 0.237096 0.167329
vt 0.254026 0.245357
vt 0.224268 0.291130
vt 0.199354 0.245470
vt 0.274675 0.306993
vt 0.248856 0.341496
vt 0.888411 0.041988
vt 0.903606 0.000000
vt 0.953177 0.039297
vt 0.935642 0.087008
vt 0.277415 0.463462
vt 0.271277 0.408914
vt 0.305595 0.368264
vt 0.063481 0.387858
vt 0.108112 0.334599
vt 0.034686 0.315690
vt 0.074881 0.280896
vt 0.110859 0.252329
vt 0.140425 0.275141
vt 0.620665 0.070868
vt 0.674176 0.052920
vt 0.692610 0.121751
vt 0.648821 0.136238
vt 0.043872 0.134826
vt 0.115625 0.126320
vt 0.111221 0.198808
vt 0.053397 0.211498
vt 0.020318 0.239242
vt 0.165876 0.213785
vt 0.185542 0.141990
vt 0.447719 0.515144
vt 0.488838 0.545204
vt 0.447340 0.593717
vt 0.409623 0.576633
vt 0.525127 0.604278
vt 0.483325 0.631929
vt 0.444447 0.658389
vt 0.404762 0.645468
vt 0.454580 0.202804
vt 0.435391 0.175411
vt 0.476246 0.114582
vt 0.505850 0.139703
vt 0.085094 0.929833
vt 0.021539 0.935101
vt 0.018975 0.877541
vt 0.071853 0.855575
vt 0.511529 0.735918
vt 0.441976 0.761493
vt 0.442487 0.703426
vt 0.503608 0.681824
vt 0.005840 0.818889
vt 0.047012 0.799971
vt 0.566535 0.098556
vt 0.524835 0.061357
vt 0.570990 0.017667
vt 0.381429 0.713288
vt 0.372057 0.781790
vt 0.031519 0.485536
vt 0.016059 0.417298
vt 0.558253 0.279459
vt 0.623924 0.294700
vt 0.575981 0.231574
vt 0.623616 0.220004
vt 0.000000 0.342147
vt 0.493565 0.239475
vt 0.544292 0.181467
vt 0.602155 0.152259
vt 0.669307 0.207165
vt 0.105820 0.826216
vt 0.129330 0.870504
vt 0.551816 0.662877
vt 0.561318 0.571427
vt 0.584263 0.629005
vt 0.591904 0.552591
vt 0.612624 0.587195
vt 0.136157 0.788867
vt 0.158634 0.822783
vt 0.000000 0.655653
vt 0.058705 0.718490
vt 0.015156 0.737888
vt 0.120750 0.712023
vt 0.112877 0.763174
vt 0.079766 0.781991
vt 0.535079 0.511572
vt 0.202540 0.761404
vt 0.172041 0.727515
vt 0.155903 0.911651
vt 0.132441 0.967576
vt 0.182340 0.860195
vt 0.204359 0.892780
vt 0.197978 0.939088
vt 0.187619 1.000000
vt 0.260287 0.757315
vt 0.224762 0.810918
vt 0.270956 0.824729
vt 0.245003 0.867588
vt 0.822436 0.314138
vt 0.807544 0.382786
vt 0.766277 0.337875
vt 0.785186 0.276740
vt 0.257276 0.991866
vt 0.255895 0.931195
vt 0.314391 0.548452
vt 0.270956 0.550435
vt 0.282075 0.485536
vt 0.324740 0.486663
vt 0.798331 0.859477
vt 0.787326 0.802379
vt 0.868950 0.103394
vt 0.851280 0.177487
vt 0.817146 0.158385
vt 0.817848 0.085366
vt 0.789000 0.145230
vt 0.777814 0.092657
vt 0.774854 0.747348
vt 0.318277 0.610887
vt 0.362058 0.538087
vt 0.364489 0.591907
vt 0.364489 0.488053
vt 0.807778 0.218692
vt 0.781218 0.182746
vt 0.836632 0.245802
vt 0.692610 0.121673
vt 0.726694 0.063685
vt 0.750651 0.129022
vt 0.733140 0.183034
vt 0.753095 0.706999
vt 0.760686 0.233321
vt 0.917073 0.139153
vt 0.314705 0.270068
vt 0.339751 0.323805
vt 0.348041 0.242280
vt 0.372057 0.273191
vt 0.896440 0.198702
vt 0.299510 0.136395
vt 0.303159 0.207413
vt 0.365236 0.122160
vt 0.354386 0.189873
vt 0.883715 0.266946
vt 0.878463 0.338052
vt 0.932607 0.219089
vt 0.941072 0.270994
vt 0.953177 0.337462
vt 0.580336 0.710655
vt 0.569716 0.785101
vt 0.512355 0.800403
vt 0.569085 0.885532
vt 0.516852 0.893719
vt 0.464867 0.893671
vt 0.442007 0.823973
vt 0.196765 0.066165
vt 0.246311 0.072803
vt 0.122222 0.049444
vt 0.133524 0.007681
vt 0.182240 0.001564
vt 0.228806 0.000000
vt 0.626938 0.000000
vt 0.385458 0.860712
vt 0.437792 0.933015
vt 0.050659 0.059492
vt 0.637921 0.724989
vt 0.624705 0.780703
vt 0.701784 0.736254
vt 0.692442 0.798832
vt 0.670095 0.863346
vt 0.620402 0.872705
vt 0.870061 0.409533
vt 0.950744 0.407053
vt 0.740427 0.836884
vt 0.693265 0.907420
vt 0.753095 0.766562
vt 0.299462 0.060174
vt 0.273440 0.007220
vt 0.625432 0.933015
vt 0.355221 0.057840
s 1
usemtl Rock
f 1/1/1 39/2/1 111/3/1 41/4/1
f 39/5/2 9/6/2 75/7/2 111/8/2
f 111/3/3 75/9/3 27/10/3 77/11/3
f 41/4/4 111/3/4 77/11/4 10/12/4
f 3/13/5 44/14/5 112/15/5 40/16/5
f 44/14/6 11/17/6 76/18/6 112/15/6
f 112/15/7 76/18/7 27/19/7 75/20/7
f 40/21/8 112/22/8 75/7/8 9/6/8
f 2/23/9 42/24/9 113/25/9 43/26/9
f 42/24/10 10/12/10 77/11/10 113/25/10
f 113/25/11 77/11/11 27/10/11 76/27/11
f 43/28/12 113/29/12 76/18/12 11/17/12
f 1/1/13 45/30/13 114/31/13 39/2/13
f 45/32/14 12/33/14 78/34/14 114/35/14
f 114/35/15 78/34/15 28/36/15 80/37/15
f 39/5/16 114/35/16 80/37/16 9/6/16
f 4/38/17 48/39/17 115/40/17 46/41/17
f 48/39/18 13/42/18 79/43/18 115/40/18
f 115/40/19 79/43/19 28/36/19 78/34/19
f 46/41/20 115/40/20 78/34/20 12/33/20
f 3/44/21 40/21/21 116/45/21 47/46/21
f 40/21/22 9/6/22 80/37/22 116/45/22
f 116/45/23 80/37/23 28/36/23 79/43/23
f 47/46/24 116/45/24 79/43/24 13/42/24
f 1/47/25 49/48/25 117/49/25 45/50/25
f 49/48/26 14/51/26 81/52/26 117/49/26
f 117/49/27 81/52/27 29/53/27 83/54/27
f 45/50/28 117/49/28 83/54/28 12/55/28
f 8/56/29 52/57/29 118/58/29 50/59/29
f 52/57/30 15/60/30 82/61/30 118/58/30
f 118/58/31 82/61/31 29/53/31 81/52/31
f 50/59/32 118/58/32 81/52/32 14/51/32
f 4/62/33 46/63/33 119/64/33 51/65/33
f 46/66/34 12/55/34 83/54/34 119/67/34
f 119/67/35 83/54/35 29/53/35 82/61/35
f 51/68/36 119/67/36 82/61/36 15/60/36
f 1/47/37 53/69/37 120/70/37 49/48/37
f 53/69/38 16/71/38 84/72/38 120/70/38
f 120/70/39 84/72/39 30/73/39 86/74/39
f 49/48/40 120/70/40 86/74/40 14/51/40
f 5/75/41 55/76/41 121/77/41 54/78/41
f 55/79/42 17/80/42 85/81/42 121/82/42
f 121/82/43 85/81/43 30/73/43 84/72/43
f 54/83/44 121/82/44 84/72/44 16/71/44
f 8/56/45 50/59/45 122/84/45 56/85/45
f 50/59/46 14/51/46 86/74/46 122/84/46
f 122/84/47 86/74/47 30/73/47 85/81/47
f 56/85/48 122/84/48 85/81/48 17/80/48
f 2/86/49 57/87/49 123/88/49 59/89/49
f 57/87/50 18/90/50 87/91/50 123/88/50
f 123/88/51 87/91/51 31/92/51 89/93/51
f 59/94/52 123/95/52 89/96/52 19/97/52
f 6/98/53 62/99/53 124/100/53 58/101/53
f 62/102/54 20/103/54 88/104/54 124/105/54
f 124/105/55 88/104/55 31/92/55 87/91/55
f 58/101/56 124/100/56 87/106/56 18/107/56
f 5/75/57 60/108/57 125/109/57 61/110/57
f 60/108/58 19/97/58 89/96/58 125/109/58
f 125/111/59 89/93/59 31/92/59 88/104/59
f 61/112/60 125/111/60 88/104/60 20/103/60
f 1/47/61 41/113/61 126/114/61 53/69/61
f 41/4/62 10/12/62 90/115/62 126/116/62
f 126/116/63 90/115/63 32/117/63 92/118/63
f 53/69/64 126/114/64 92/119/64 16/71/64
f 2/23/65 59/94/65 127/120/65 42/24/65
f 59/94/66 19/97/66 91/121/66 127/120/66
f 127/120/67 91/121/67 32/117/67 90/115/67
f 42/24/68 127/120/68 90/115/68 10/12/68
f 5/75/69 54/78/69 128/122/69 60/108/69
f 54/78/70 16/123/70 92/118/70 128/122/70
f 128/122/71 92/118/71 32/117/71 91/121/71
f 60/108/72 128/122/72 91/121/72 19/97/72
f 6/98/73 58/101/73 129/124/73 64/125/73
f 58/126/74 18/90/74 93/127/74 129/128/74
f 129/128/75 93/127/75 33/129/75 95/130/75
f 64/125/76 129/124/76 95/131/76 21/132/76
f 2/133/77 43/28/77 130/134/77 57/135/77
f 43/28/78 11/17/78 94/136/78 130/134/78
f 130/134/79 94/136/79 33/137/79 93/138/79
f 57/87/80 130/139/80 93/127/80 18/90/80
f 3/13/81 63/140/81 131/141/81 44/14/81
f 63/140/82 21/132/82 95/131/82 131/141/82
f 131/141/83 95/131/83 33/137/83 94/136/83
f 44/14/84 131/141/84 94/136/84 11/17/84
f 6/98/85 64/125/85 132/142/85 65/143/85
f 64/125/86 21/132/86 96/144/86 132/142/86
f 132/142/87 96/144/87 34/145/87 98/146/87
f 65/143/88 132/142/88 98/146/88 22/147/88
f 3/13/89 67/148/89 133/149/89 63/140/89
f 67/148/90 23/150/90 97/151/90 133/149/90
f 133/149/91 97/151/91 34/145/91 96/144/91
f 63/140/92 133/149/92 96/144/92 21/132/92
f 7/152/93 66/153/93 134/154/93 68/155/93
f 66/156/94 22/147/94 98/146/94 134/157/94
f 134/157/95 98/146/95 34/145/95 97/151/95
f 68/158/96 134/159/96 97/160/96 23/161/96
f 4/38/97 69/162/97 135/163/97 48/39/97
f 69/164/98 24/165/98 99/166/98 135/167/98
f 135/167/99 99/166/99 35/168/99 101/169/99
f 48/39/100 135/163/100 101/170/100 13/42/100
f 7/171/101 68/158/101 136/172/101 70/173/101
f 68/158/102 23/161/102 100/174/102 136/172/102
f 136/175/103 100/176/103 35/168/103 99/166/103
f 70/177/104 136/175/104 99/166/104 24/165/104
f 3/178/105 47/179/105 137/180/105 67/181/105
f 47/46/106 13/42/106 101/170/106 137/182/106
f 137/180/107 101/169/107 35/168/107 100/176/107
f 67/181/108 137/180/108 100/176/108 23/183/108
f 4/62/109 51/65/109 138/184/109 69/164/109
f 51/68/110 15/60/110 102/185/110 138/186/110
f 138/186/111 102/185/111 36/187/111 104/188/111
f 69/164/112 138/184/112 104/189/112 24/165/112
f 8/56/113 72/190/113 139/191/113 52/57/113
f 72/190/114 25/192/114 103/193/114 139/191/114
f 139/191/115 103/193/115 36/187/115 102/185/115
f 52/57/116 139/191/116 102/185/116 15/60/116
f 7/152/117 70/177/117 140/194/117 71/195/117
f 70/177/118 24/165/118 104/189/118 140/194/118
f 140/194/119 104/189/119 36/196/119 103/197/119
f 71/195/120 140/194/120 103/197/120 25/198/120
f 6/199/121 73/200/121 141/201/121 62/102/121
f 73/200/122 26/202/122 105/203/122 141/201/122
f 141/201/123 105/203/123 37/204/123 107/205/123
f 62/102/124 141/201/124 107/205/124 20/103/124
f 8/56/125 56/85/125 142/206/125 74/207/125
f 56/85/126 17/80/126 106/208/126 142/206/126
f 142/206/127 106/208/127 37/209/127 105/210/127
f 74/207/128 142/206/128 105/210/128 26/211/128
f 5/75/129 61/110/129 143/212/129 55/76/129
f 61/112/130 20/103/130 107/205/130 143/213/130
f 143/213/131 107/205/131 37/204/131 106/214/131
f 55/79/132 143/215/132 106/208/132 17/80/132
f 6/199/133 65/216/133 144/217/133 73/200/133
f 65/216/134 22/218/134 108/219/134 144/217/134
f 144/217/135 108/219/135 38/220/135 110/221/135
f 73/200/136 144/217/136 110/221/136 26/202/136
f 7/152/137 71/195/137 145/222/137 66/153/137
f 71/195/138 25/198/138 109/223/138 145/222/138
f 145/224/139 109/225/139 38/220/139 108/219/139
f 66/226/140 145/224/140 108/219/140 22/218/140
f 8/56/141 74/207/141 146/227/141 72/190/141
f 74/207/142 26/211/142 110/228/142 146/227/142
f 146/229/143 110/221/143 38/220/143 109/225/143
f 72/190/144 146/227/144 109/230/144 25/192/144
