# Blender 4.0.2
# www.blender.org
mtllib tree.mtl
o Cylinder.086
v 0.000000 -0.648314 -1.003890
v 0.000000 0.944929 -0.989660
v 0.709857 -0.648314 -0.709857
v 0.699795 0.944929 -0.699795
v 1.003890 -0.648314 -0.000000
v 0.989661 0.944929 -0.000000
v 0.709857 -0.648314 0.709857
v 0.699795 0.944929 0.699796
v 0.000000 -0.648314 1.003890
v 0.000000 0.944929 0.989661
v -0.709857 -0.648314 0.709857
v -0.699796 0.944929 0.699796
v -1.003890 -0.648314 -0.000000
v -0.989660 0.944929 -0.000000
v -0.709857 -0.648314 -0.709857
v -0.699796 0.944929 -0.699795
v 0.362879 3.096351 -0.238736
v -0.269892 3.011799 -0.508256
v 0.623910 3.136192 0.405133
v 0.363101 3.098511 1.050266
v -0.269754 3.010043 1.322786
v -0.908415 2.922564 1.059669
v -1.174696 2.885986 0.410116
v -0.909481 2.926504 -0.241303
v 0.234986 5.699922 -0.434553
v -0.199360 5.690313 -0.614995
v 0.414714 5.703909 -0.000000
v 0.234986 5.699922 0.434553
v -0.199360 5.690313 0.614995
v -0.634338 5.680727 0.435184
v -0.814699 5.676766 -0.000000
v -0.634338 5.680727 -0.435184
v 0.000000 -0.436065 -1.004254
v 0.710115 -0.436065 -0.710115
v 1.004255 -0.436065 -0.000000
v 0.710115 -0.436065 0.710115
v 0.000000 -0.436065 1.004255
v -0.710115 -0.436065 0.710115
v -1.004254 -0.436065 -0.000000
v -0.710115 -0.436065 -0.710115
v -0.142923 6.614796 0.452561
v -0.462289 6.799793 0.319732
v -0.550004 6.602830 0.407373
v -0.717898 6.791618 -0.000000
v -0.549373 6.603043 -0.405413
v -0.142380 6.614758 -0.574283
v 0.264016 6.627327 -0.407269
v 0.432555 6.632433 -0.000000
v 0.263825 6.823213 0.406985
v -0.142930 6.615030 0.576054
v -0.460937 6.545027 0.320248
v -0.140919 6.554256 0.452841
vn 0.3827 0.0041 -0.9239
vn 0.3827 0.0098 -0.9238
vn 0.9239 0.0041 -0.3827
vn 0.9238 0.0098 -0.3827
vn 0.9239 0.0041 0.3827
vn 0.9238 0.0098 0.3827
vn 0.3827 0.0041 0.9239
vn 0.3827 0.0098 0.9238
vn -0.9249 -0.0089 -0.3802
vn -0.3827 0.0041 0.9239
vn -0.3827 0.0098 0.9238
vn -0.3631 -0.1990 0.9103
vn -0.9239 0.0041 0.3827
vn -0.9238 0.0098 0.3827
vn -0.9239 0.0041 -0.3827
vn -0.9238 0.0098 -0.3827
vn -0.3827 0.0041 -0.9239
vn -0.3827 0.0098 -0.9238
vn -0.3886 0.2424 0.8889
vn -0.9130 0.1732 0.3694
vn 0.3923 -0.0919 0.9152
vn -0.9101 -0.1660 0.3796
vn 0.3609 0.2525 -0.8978
vn 0.9214 0.0830 0.3796
vn -0.3876 0.1647 -0.9070
vn 0.9002 0.2206 -0.3756
vn 0.9156 0.1346 0.3788
vn 0.3917 -0.0484 -0.9188
vn -0.9242 0.0649 -0.3763
vn 0.3622 0.2303 0.9032
vn 0.9253 0.0163 -0.3788
vn -0.3817 -0.0268 -0.9239
vn -0.3827 -0.0016 -0.9239
vn -0.9239 -0.0016 -0.3827
vn -0.9239 -0.0016 0.3827
vn -0.3827 -0.0016 0.9239
vn 0.3827 -0.0016 0.9239
vn 0.9239 -0.0016 0.3827
vn 0.9239 -0.0016 -0.3827
vn 0.3827 -0.0016 -0.9239
vn -0.9138 0.0867 0.3967
vn -0.3832 0.0646 -0.9214
vn 0.3815 0.0162 -0.9242
vn 0.9226 -0.0158 0.3855
vn -0.3830 0.0625 0.9216
vn -0.9131 0.0873 -0.3982
vn 0.3806 0.0142 0.9246
vn 0.9240 -0.0177 -0.3821
vn 0.3838 0.0018 -0.9234
vt 1.000000 0.565789
vt 1.000000 1.000000
vt 0.875000 1.000000
vt 0.875000 0.565789
vt 0.750000 1.000000
vt 0.750000 0.565789
vt 0.625000 1.000000
vt 0.625000 0.565789
vt 0.500000 1.000000
vt 0.500000 0.565789
vt 0.125000 1.000000
vt 0.250000 1.000000
vt 0.250000 1.000000
vt 0.125000 1.000000
vt 0.375000 1.000000
vt 0.375000 0.565789
vt 0.500000 1.000000
vt 0.375000 1.000000
vt 0.250000 0.565789
vt 0.125000 0.565789
vt 0.000000 1.000000
vt 0.000000 0.565789
vt 0.375000 1.000000
vt 0.625000 1.000000
vt 1.000000 1.000000
vt 0.875000 1.000000
vt 0.750000 1.000000
vt 1.000000 1.000000
vt 0.125000 1.000000
vt 0.125000 0.500000
vt 0.000000 0.500000
vt 0.250000 0.500000
vt 0.375000 0.500000
vt 0.500000 0.500000
vt 0.625000 0.500000
vt 0.750000 0.500000
vt 0.875000 0.500000
vt 1.000000 0.500000
vt 0.375000 1.000000
vt 0.000000 1.000000
vt 0.875000 1.000000
vt 0.625000 1.000000
vt 0.400267 1.000000
vt 0.507871 1.000000
s 1
usemtl bark.001
f 33/1/1 2/2/2 4/3/2 34/4/1
f 34/4/3 4/3/4 6/5/4 35/6/3
f 35/6/5 6/5/6 8/7/6 36/8/5
f 36/8/7 8/7/8 10/9/8 37/10/7
f 16/11/9 14/12/9 23/13/9 24/14/9
f 37/10/10 10/9/11 12/15/11 38/16/10
f 12/15/12 10/9/12 21/17/12 22/18/12
f 38/16/13 12/15/14 14/12/14 39/19/13
f 39/19/15 14/12/16 16/11/16 40/20/15
f 40/20/17 16/11/18 2/21/18 33/22/17
f 22/18/19 21/17/19 29/17/19 30/23/19
f 23/13/20 22/18/20 30/23/20 31/12/20
f 10/9/21 8/7/21 20/24/21 21/17/21
f 14/12/22 12/15/22 22/18/22 23/13/22
f 4/3/23 2/2/23 18/25/23 17/26/23
f 8/7/24 6/5/24 19/27/24 20/24/24
f 2/21/25 16/11/25 24/14/25 18/21/25
f 6/5/26 4/3/26 17/26/26 19/27/26
f 20/24/27 19/27/27 27/27/27 28/7/27
f 17/26/28 18/25/28 26/28/28 25/3/28
f 24/14/29 23/13/29 31/12/29 32/29/29
f 21/17/30 20/24/30 28/7/30 29/17/30
f 19/27/31 17/26/31 25/3/31 27/27/31
f 18/21/32 24/14/32 32/29/32 26/21/32
f 15/30/33 40/20/17 33/22/17 1/31/33
f 13/32/34 39/19/15 40/20/15 15/30/34
f 11/33/35 38/16/13 39/19/13 13/32/35
f 9/34/36 37/10/10 38/16/10 11/33/36
f 7/35/37 36/8/7 37/10/7 9/34/37
f 5/36/38 35/6/5 36/8/5 7/35/38
f 3/37/39 34/4/3 35/6/3 5/36/39
f 1/38/40 33/1/1 34/4/1 3/37/40
f 31/12/41 30/23/41 43/39/41 44/12/41
f 26/21/42 32/29/42 45/11/42 46/40/42
f 25/3/43 26/28/43 46/28/43 47/41/43
f 28/7/44 27/27/44 48/27/44 49/42/44
f 30/23/45 29/17/45 50/17/45 43/39/45
f 32/29/46 31/12/46 44/12/46 45/11/46
f 29/17/47 28/7/47 49/42/47 50/17/47
f 27/27/48 25/3/48 47/41/48 48/27/48
f 42/43/49 41/44/49 52/44/49 51/43/49
o Cube.032
v -4.922096 7.020141 2.387452
v -5.749633 15.763007 2.476031
v -4.770883 8.053614 -2.971452
v -5.257013 13.447635 -3.526469
v -0.883096 6.571174 2.852257
v 0.625880 16.410681 3.307117
v -0.770861 5.071467 -4.294807
v 0.603627 13.250043 -6.210450
v -5.087137 7.509146 -1.738920
v -5.369108 7.003319 0.202655
v -5.243423 6.671378 1.728261
v -5.224005 8.094520 2.359023
v -5.393805 9.556557 2.195903
v -5.497489 11.176916 2.289818
v -6.055226 13.873383 1.645101
v -7.066041 10.807508 -0.421712
v -5.230088 13.261917 -2.310623
v -5.432903 11.349800 -4.360229
v -5.006763 10.190143 -3.741876
v -4.965561 9.118257 -3.460817
v -1.802299 5.252381 -4.192748
v -3.035908 5.844117 -3.862502
v -4.093647 7.036701 -3.415968
v -4.476185 14.543106 -3.690814
v -2.277328 11.718579 -6.064909
v -0.661028 11.174753 -6.659215
v 0.661135 9.874533 -6.912184
v 0.592516 7.677192 -6.774105
v -0.155167 5.450266 -5.301094
v -0.377177 6.212062 1.500756
v -0.249582 5.486058 -0.958098
v -0.510792 4.875199 -2.932600
v 2.630404 17.366413 -2.794990
v 1.927118 17.847012 -1.236311
v 1.852542 18.115742 1.707243
v 2.294728 10.159139 4.976605
v 0.625055 8.248411 3.883205
v -0.415518 6.853698 3.414166
v -3.962795 6.751189 2.578374
v -2.885051 6.616757 3.044659
v -1.860851 6.668253 3.190122
v -1.944133 15.781490 3.541041
v -3.562638 17.459061 2.691999
v -4.321628 17.409752 2.150589
v -6.040447 7.992454 1.585608
v -6.410565 9.224918 1.424546
v -6.725801 9.791078 1.539763
v -6.042968 8.221298 0.048147
v -6.296638 8.787136 -0.162761
v -6.720032 9.573735 -0.144451
v -5.518453 8.127107 -2.098455
v -5.537775 8.949251 -2.433823
v -5.903462 9.248356 -2.725366
v -4.002956 7.444814 -4.637587
v -3.907009 8.476608 -5.151184
v -3.886046 9.916617 -5.447603
v -2.767549 6.273456 -5.380836
v -2.503978 7.746890 -6.109551
v -2.510300 7.550303 -6.962827
v -1.437883 5.932789 -5.629044
v -0.985671 7.602663 -6.518342
v -1.025793 7.610402 -7.296124
v 0.771463 4.737323 -3.672916
v 2.519511 6.215372 -5.246715
v 4.722617 10.538090 -5.274359
v 1.040972 5.247479 -0.751295
v 2.390507 5.393763 -1.230931
v 4.469832 6.317164 -2.405414
v 0.745946 6.105895 1.737820
v 3.075781 6.715497 2.296318
v 5.026503 8.217530 2.926840
v -2.159344 7.537004 4.025115
v -2.319075 8.843073 4.216218
v -2.157187 10.276553 4.173762
v -3.150086 7.476793 3.695774
v -3.440711 8.615566 3.474479
v -3.655252 11.086891 3.123239
v -4.163711 7.660856 2.920918
v -4.368772 8.816348 2.735099
v -4.511678 11.955866 2.583663
v -4.154538 6.314424 -1.919489
v -3.085832 5.803820 -2.155327
v -1.754501 5.224082 -2.604643
v -4.062694 6.272682 -0.154113
v -2.828967 6.356773 -0.388722
v -1.504139 5.955523 -0.803205
v -3.921238 6.362828 1.650221
v -2.631355 6.519724 1.631750
v -1.507905 6.525860 1.528533
v -0.017343 17.353056 -3.750627
v -2.233881 18.079332 -2.920382
v -4.003680 17.199341 -2.063894
v -1.117426 20.085484 -1.292960
v -2.759566 20.094933 -0.817062
v -4.268466 17.785091 -0.227002
v -1.024363 19.687748 1.120018
v -2.950092 19.841629 1.060167
v -4.237456 17.682779 1.125188
v -6.258000 12.158553 2.980486
v -5.602984 11.778892 -4.538825
v 0.564966 10.886805 -7.234148
v 2.809970 10.378771 5.604774
v -6.911793 10.100327 1.987683
v -6.622526 10.038274 -0.301869
v -6.117846 9.724605 -2.840222
v -4.280707 10.520308 -6.100699
v -2.514473 7.868590 -7.434354
v -0.862105 7.937465 -7.766611
v 4.544758 11.546791 -5.552571
v 5.599256 7.615857 -0.978969
v 5.941333 8.158719 3.717598
v -1.875448 10.521804 5.818030
v -4.219195 13.421023 4.665011
v -5.322322 13.992968 3.783493
vn -0.9440 -0.3298 -0.0116
vn -0.8731 -0.4831 0.0648
vn -0.9186 -0.2874 -0.2713
vn -0.7600 -0.6093 -0.2263
vn -0.7076 -0.2782 0.6495
vn -0.6390 -0.0356 0.7684
vn -0.4595 -0.1714 0.8715
vn -0.9907 0.0995 0.0926
vn -0.9013 0.1322 -0.4126
vn -0.9738 0.2273 0.0117
vn -0.2327 -0.6025 -0.7635
vn -0.8440 -0.1902 -0.5015
vn -0.6710 -0.5175 -0.5310
vn -0.8090 -0.5471 -0.2147
vn -0.8610 -0.5054 -0.0565
vn -0.6490 -0.2612 -0.7145
vn -0.8152 -0.3880 -0.4301
vn -0.2696 -0.3915 -0.8798
vn 0.0006 -0.9934 0.1150
vn -0.8859 -0.3769 -0.2706
vn -0.8628 -0.1589 -0.4800
vn -0.8186 -0.2999 -0.4898
vn -0.5486 0.4415 -0.7101
vn -0.2365 0.4215 -0.8754
vn -0.2118 0.3341 -0.9184
vn -0.3298 0.3480 -0.8776
vn 0.2991 -0.3693 -0.8799
vn -0.0505 -0.5063 -0.8609
vn -0.2036 -0.8658 -0.4571
vn -0.3915 -0.8307 -0.3958
vn -0.7557 -0.5921 -0.2800
vn 0.4381 -0.8976 -0.0492
vn 0.6513 -0.6289 -0.4245
vn 0.1837 -0.9279 0.3243
vn 0.5245 -0.8211 0.2251
vn -0.1077 -0.9623 -0.2498
vn 0.2148 -0.7026 -0.6784
vn 0.4415 -0.1762 -0.8798
vn 0.3352 0.4574 -0.8237
vn 0.9432 0.3096 0.1202
vn 0.9337 0.3511 -0.0700
vn -0.9765 0.1919 0.0982
vn 0.5970 0.4186 0.6843
vn 0.1689 -0.5813 0.7960
vn 0.1964 -0.6882 0.6984
vn -0.1867 -0.9401 0.2851
vn -0.0936 -0.9682 0.2318
vn -0.4434 -0.0706 0.8935
vn -0.5514 0.0763 0.8308
vn -0.6140 0.0074 0.7892
vn -0.5671 0.0376 0.8228
vn 0.0004 -0.7717 0.6360
vn 0.1182 -0.2720 0.9550
vn -0.0858 -0.2556 0.9630
vn 0.0315 0.3807 0.9242
vn 0.0193 0.4146 0.9098
vn -0.4499 0.4680 0.7607
vn -0.6468 0.3459 0.6797
vn -0.3826 -0.0087 0.9239
vn -0.4413 0.0562 0.8956
vn -0.4120 -0.2434 0.8781
vn -0.4929 -0.5210 0.6968
vn -0.1347 -0.6708 0.7293
vn -0.1490 -0.9764 0.1560
vn -0.2189 -0.9078 0.3579
vn -0.2196 -0.9077 0.3575
vn -0.2283 -0.9071 0.3537
vn 0.1006 -0.9933 0.0568
vn -0.1218 -0.9779 0.1702
vn -0.8038 -0.4894 -0.3383
vn -0.6506 -0.7334 -0.1971
vn -0.4202 -0.9072 -0.0192
vn -0.2354 -0.9707 -0.0493
vn -0.2288 -0.9070 0.3534
vn -0.2858 -0.9270 0.2430
vn -0.0540 -0.9471 0.3165
vn -0.1709 -0.9786 0.1142
vn 0.0251 -0.9963 0.0825
vn -0.0284 -0.9795 0.1995
vn -0.3727 -0.9272 -0.0374
vn -0.6648 -0.7333 -0.1424
vn -0.1224 0.6654 -0.7364
vn -0.7111 0.5127 -0.4811
vn -0.8465 0.5321 0.0168
vn 0.0308 0.5174 -0.8552
vn -0.1833 0.4355 -0.8813
vn -0.4260 0.4421 -0.7894
vn -0.9162 0.3680 -0.1588
vn -0.8821 0.3385 -0.3276
vn -0.9184 0.3912 -0.0592
vn -0.2405 -0.8635 0.4434
vn -0.8405 0.4542 -0.2953
vn -0.7156 0.5789 0.3909
vn 0.0575 0.5309 0.8455
vn 0.5396 0.8417 0.0184
vn 0.2391 0.7008 -0.6721
vn 0.1432 -0.4707 0.8706
vn -0.7180 -0.5176 0.4653
vn -0.7461 -0.5483 0.3778
vn -0.0416 -0.9759 0.2142
vn 0.0455 0.5703 0.8202
vn 0.3479 -0.9176 0.1924
vn 0.9186 -0.2133 -0.3326
vn 0.4024 -0.2101 -0.8910
vn 0.7601 -0.3588 -0.5417
vn -0.0881 -0.8147 -0.5731
vn -0.8669 -0.4895 -0.0939
vn -0.7685 -0.5997 -0.2229
vn -0.5213 -0.4553 -0.7217
vn -0.9571 -0.1838 -0.2241
vn -0.9938 -0.0883 -0.0676
vn -0.3209 -0.8491 0.4196
vn 0.5920 0.8057 0.0187
vn 0.2375 -0.5388 0.8083
vn 0.0628 0.9865 0.1511
vt 0.437500 0.062500
vt 0.500000 0.062500
vt 0.500000 0.125000
vt 0.437500 0.125000
vt 0.562500 0.062500
vt 0.562500 0.125000
vt 0.500000 0.187500
vt 0.437500 0.187500
vt 0.562500 0.187500
vt 0.375000 0.000000
vt 0.437500 0.000000
vt 0.375000 0.062500
vt 0.500000 0.000000
vt 0.562500 0.000000
vt 0.593750 0.062500
vt 0.625000 0.062500
vt 0.625000 0.125000
vt 0.593750 0.125000
vt 0.625000 0.187500
vt 0.593750 0.187500
vt 0.625000 0.250000
vt 0.593750 0.250000
vt 0.562500 0.250000
vt 0.500000 0.250000
vt 0.437500 0.250000
vt 0.375000 0.187500
vt 0.375000 0.250000
vt 0.375000 0.125000
vt 0.437174 0.312147
vt 0.500000 0.312283
vt 0.500000 0.373264
vt 0.434896 0.372179
vt 0.562826 0.312147
vt 0.565104 0.372179
vt 0.500000 0.432509
vt 0.429579 0.428955
vt 0.570421 0.428955
vt 0.374349 0.311849
vt 0.625651 0.311849
vt 0.594238 0.311998
vt 0.630208 0.369792
vt 0.597656 0.370985
vt 0.642578 0.419922
vt 0.606500 0.424439
vt 0.666667 0.458333
vt 0.620606 0.472711
vt 0.574544 0.487088
vt 0.500000 0.493056
vt 0.425456 0.487088
vt 0.357422 0.419922
vt 0.333333 0.458333
vt 0.369792 0.369792
vt 0.429742 0.554742
vt 0.500000 0.557726
vt 0.500000 0.625000
vt 0.432726 0.625000
vt 0.570258 0.554742
vt 0.567274 0.625000
vt 0.500000 0.692274
vt 0.429742 0.695258
vt 0.570258 0.695258
vt 0.362088 0.550456
vt 0.637912 0.550456
vt 0.604085 0.552599
vt 0.631945 0.625000
vt 0.599609 0.625000
vt 0.637912 0.699544
vt 0.604085 0.697401
vt 0.593750 0.000000
vt 0.625000 0.000000
vt 0.666667 0.791667
vt 0.620605 0.777289
vt 0.574544 0.762912
vt 0.500000 0.756944
vt 0.425456 0.762912
vt 0.368056 0.625000
vt 0.362088 0.699544
vt 0.429579 0.821045
vt 0.500000 0.817491
vt 0.500000 0.876736
vt 0.434896 0.877821
vt 0.570421 0.821045
vt 0.565104 0.877821
vt 0.500000 0.937717
vt 0.437174 0.937853
vt 0.562826 0.937853
vt 0.333333 0.791667
vt 0.357422 0.830078
vt 0.642578 0.830078
vt 0.606500 0.825562
vt 0.630208 0.880208
vt 0.597656 0.879015
vt 0.625651 0.938151
vt 0.594238 0.938002
vt 0.625000 1.000000
vt 0.593750 1.000000
vt 0.562500 1.000000
vt 0.500000 1.000000
vt 0.437500 1.000000
vt 0.374349 0.938151
vt 0.375000 1.000000
vt 0.369792 0.880208
vt 0.187147 0.562174
vt 0.247179 0.559896
vt 0.248264 0.625000
vt 0.187283 0.625000
vt 0.303955 0.554579
vt 0.307509 0.625000
vt 0.247179 0.690104
vt 0.187147 0.687826
vt 0.303955 0.695421
vt 0.125000 0.500000
vt 0.186849 0.499349
vt 0.125000 0.562500
vt 0.244792 0.494792
vt 0.294922 0.482422
vt 0.294922 0.767578
vt 0.244792 0.755208
vt 0.186849 0.750651
vt 0.125000 0.625000
vt 0.125000 0.687500
vt 0.696045 0.554579
vt 0.752821 0.559896
vt 0.751736 0.625000
vt 0.692491 0.625000
vt 0.812853 0.562174
vt 0.812717 0.625000
vt 0.812853 0.687826
vt 0.752821 0.690104
vt 0.705078 0.482422
vt 0.755208 0.494792
vt 0.813151 0.499349
vt 0.875000 0.500000
vt 0.875000 0.562500
vt 0.875000 0.625000
vt 0.875000 0.687500
vt 0.125000 0.750000
vt 0.875000 0.750000
vt 0.813151 0.750651
vt 0.755208 0.755208
vt 0.696045 0.695421
vt 0.705078 0.767578
s 1
usemtl leaves.001
f 97/45/50 98/46/50 101/47/50 100/48/50
f 98/46/51 99/49/51 102/50/51 101/47/51
f 100/48/52 101/47/52 104/51/52 103/52/52
f 101/47/53 102/50/53 105/53/53 104/51/53
f 53/54/54 64/55/54 97/45/54 63/56/54
f 64/55/55 65/57/55 98/46/55 97/45/55
f 65/57/56 66/58/56 99/49/56 98/46/56
f 155/59/57 67/60/57 68/61/57 156/62/57
f 156/62/58 68/61/58 69/63/58 157/64/58
f 157/64/59 69/63/59 56/65/59 152/66/59
f 104/51/60 105/53/60 70/67/60 71/68/60
f 103/52/61 104/51/61 71/68/61 72/69/61
f 61/70/62 103/52/62 72/69/62 55/71/62
f 62/72/63 100/48/63 103/52/63 61/70/63
f 63/56/64 97/45/64 100/48/64 62/72/64
f 106/73/65 107/74/65 110/75/65 109/76/65
f 107/74/66 108/77/66 111/78/66 110/75/66
f 109/76/67 110/75/67 113/79/67 112/80/67
f 110/75/68 111/78/68 114/81/68 113/79/68
f 55/71/69 72/69/69 106/73/69 75/82/69
f 72/69/70 71/68/70 107/74/70 106/73/70
f 71/68/71 70/67/71 108/77/71 107/74/71
f 152/66/72 56/65/72 76/83/72 158/84/72
f 158/84/73 76/83/73 77/85/73 159/86/73
f 159/86/74 77/85/74 78/87/74 160/88/74
f 160/88/75 78/87/75 60/89/75 153/90/75
f 113/79/76 114/81/76 79/91/76 80/92/76
f 112/80/77 113/79/77 80/92/77 81/93/77
f 73/94/78 112/80/78 81/93/78 59/95/78
f 74/96/79 109/76/79 112/80/79 73/94/79
f 75/82/80 106/73/80 109/76/80 74/96/80
f 115/97/81 116/98/81 119/99/81 118/100/81
f 116/98/82 117/101/82 120/102/82 119/99/82
f 118/100/83 119/99/83 122/103/83 121/104/83
f 119/99/84 120/102/84 123/105/84 122/103/84
f 59/95/85 81/93/85 115/97/85 84/106/85
f 81/93/86 80/92/86 116/98/86 115/97/86
f 80/92/87 79/91/87 117/101/87 116/98/87
f 153/90/88 60/89/88 85/107/88 161/108/88
f 161/108/89 85/107/89 86/109/89 162/110/89
f 162/110/90 86/109/90 87/111/90 163/112/90
f 151/113/91 54/114/91 67/60/91 155/59/91
f 163/112/92 87/111/92 58/115/92 154/116/92
f 122/103/93 123/105/93 88/117/93 89/118/93
f 121/104/94 122/103/94 89/118/94 90/119/94
f 83/120/95 118/100/95 121/104/95 82/121/95
f 84/106/96 115/97/96 118/100/96 83/120/96
f 124/122/97 125/123/97 128/124/97 127/125/97
f 125/123/98 126/126/98 129/127/98 128/124/98
f 127/125/99 128/124/99 131/128/99 130/129/99
f 128/124/100 129/127/100 132/130/100 131/128/100
f 57/131/101 90/119/101 124/122/101 93/132/101
f 90/119/102 89/118/102 125/123/102 124/122/102
f 89/118/103 88/117/103 126/126/103 125/123/103
f 154/116/104 58/115/104 94/133/104 164/134/104
f 164/134/105 94/133/105 95/135/105 165/136/105
f 165/136/106 95/135/106 96/137/106 166/138/106
f 166/138/107 96/137/107 54/139/107 151/140/107
f 131/128/108 132/130/108 66/141/108 65/142/108
f 130/129/109 131/128/109 65/142/109 64/143/109
f 91/144/110 130/129/110 64/143/110 53/145/110
f 92/146/111 127/125/111 130/129/111 91/144/111
f 93/132/112 124/122/112 127/125/112 92/146/112
f 133/147/113 134/148/113 137/149/113 136/150/113
f 134/148/114 135/151/115 138/152/116 137/149/114
f 136/150/117 137/149/117 140/153/117 139/154/117
f 137/149/118 138/152/118 141/155/118 140/153/118
f 55/156/119 75/157/119 133/147/119 61/158/119
f 75/157/120 74/159/120 134/148/120 133/147/120
f 74/159/121 73/160/121 135/151/121 134/148/121
f 73/160/122 59/95/122 84/106/122 135/151/122
f 135/151/115 84/106/123 83/120/123 138/152/116
f 138/152/124 83/120/124 82/121/124 141/155/124
f 82/121/125 121/104/125 90/119/125 57/131/125
f 141/155/126 82/121/126 57/131/126 93/161/126
f 140/153/127 141/155/127 93/161/127 92/162/127
f 139/154/128 140/153/128 92/162/128 91/163/128
f 62/164/129 136/150/129 139/154/129 63/165/129
f 61/158/130 133/147/130 136/150/130 62/164/130
f 142/166/131 143/167/131 146/168/131 145/169/131
f 143/167/132 144/170/132 147/171/132 146/168/132
f 146/168/133 147/171/133 150/172/133 149/173/133
f 60/89/134 78/174/134 142/166/134 85/107/134
f 78/174/135 77/175/135 143/167/135 142/166/135
f 77/175/136 76/176/136 144/170/136 143/167/136
f 76/176/137 56/177/137 69/178/137 144/170/137
f 144/170/138 69/178/138 68/179/138 147/171/138
f 147/171/139 68/179/139 67/180/139 150/172/139
f 63/165/140 139/154/140 91/163/140 53/181/140
f 150/172/141 67/180/141 54/182/141 96/183/141
f 149/173/142 150/172/142 96/183/142 95/184/142
f 148/185/143 149/173/143 95/184/143 94/186/143
f 86/109/144 145/169/144 148/185/144 87/111/144
f 85/107/145 142/166/145 145/169/145
f 132/130/146 166/138/146 151/140/146 66/141/146
f 129/127/147 165/136/147 166/138/147 132/130/147
f 126/126/148 164/134/148 165/136/148 129/127/148
f 88/117/149 154/116/149 164/134/149 126/126/149
f 87/111/150 148/185/150 94/186/150 58/115/150
f 120/102/151 162/110/151 163/112/151 123/105/151
f 117/101/152 161/108/152 162/110/152 120/102/152
f 79/91/153 153/90/153 161/108/153 117/101/153
f 114/81/154 160/88/154 153/90/154 79/91/154
f 111/78/155 159/86/155 160/88/155 114/81/155
f 108/77/156 158/84/156 159/86/156 111/78/156
f 70/67/157 152/66/157 158/84/157 108/77/157
f 105/53/158 157/64/158 152/66/158 70/67/158
f 102/50/159 156/62/159 157/64/159 105/53/159
f 99/49/160 155/59/160 156/62/160 102/50/160
f 123/105/161 163/112/161 154/116/161 88/117/161
f 145/169/162 86/109/162 85/107/162
f 66/58/163 151/113/163 155/59/163 99/49/163
f 146/168/164 149/173/164 148/185/164 145/169/164
